<?xml version="1.0" encoding="UTF-8" standalone="no"?>
<svg
   xmlns:dc="http://purl.org/dc/elements/1.1/"
   xmlns:cc="http://creativecommons.org/ns#"
   xmlns:rdf="http://www.w3.org/1999/02/22-rdf-syntax-ns#"
   xmlns:svg="http://www.w3.org/2000/svg"
   xmlns="http://www.w3.org/2000/svg"
   xmlns:sodipodi="http://sodipodi.sourceforge.net/DTD/sodipodi-0.dtd"
   xmlns:inkscape="http://www.inkscape.org/namespaces/inkscape"
   width="1080"
   height="1920"
   viewBox="0 0 285.74999 508.00001"
   version="1.1"
   id="svg1808"
   inkscape:version="1.0.1 (3bc2e813f5, 2020-09-07)"
   sodipodi:docname="menu.svg">
  <defs
     id="defs1802">
    <rect
       x="25.4"
       y="165.10001"
       width="76.199997"
       height="12.7"
       id="rect903-4-0" />
    <rect
       x="25.4"
       y="165.10001"
       width="76.199997"
       height="12.7"
       id="rect1727" />
    <rect
       x="25.4"
       y="165.10001"
       width="76.199997"
       height="12.7"
       id="rect903-9-9-9" />
    <rect
       x="25.4"
       y="165.10001"
       width="76.199997"
       height="12.7"
       id="rect1730" />
    <rect
       x="25.4"
       y="165.10001"
       width="76.199997"
       height="12.7"
       id="rect903-9-5-0-1" />
    <rect
       x="25.4"
       y="165.10001"
       width="76.199997"
       height="12.7"
       id="rect1733" />
    <rect
       x="25.4"
       y="165.10001"
       width="76.199997"
       height="12.7"
       id="rect903-9-5-6-4-4" />
    <rect
       x="25.4"
       y="165.10001"
       width="76.199997"
       height="12.7"
       id="rect1736" />
    <rect
       x="355.46848"
       y="19.243406"
       width="113.85682"
       height="63.075607"
       id="rect1242-2" />
    <rect
       x="355.46848"
       y="19.243406"
       width="113.85682"
       height="63.075607"
       id="rect1739" />
    <rect
       x="25.4"
       y="165.10001"
       width="106.43809"
       height="25.173214"
       id="rect903-9-4" />
    <rect
       x="25.4"
       y="165.10001"
       width="106.43809"
       height="25.173214"
       id="rect1742" />
    <rect
       x="25.4"
       y="165.10001"
       width="114.68681"
       height="38.357876"
       id="rect903-0" />
    <rect
       x="25.4"
       y="165.10001"
       width="114.68681"
       height="38.357876"
       id="rect1745" />
    <rect
       x="25.4"
       y="165.10001"
       width="76.199997"
       height="12.7"
       id="rect903-9-5-4" />
    <rect
       x="25.4"
       y="165.10001"
       width="76.199997"
       height="12.7"
       id="rect1748" />
    <rect
       x="25.4"
       y="165.10001"
       width="76.199997"
       height="12.7"
       id="rect903-9-5-6-2" />
    <rect
       x="25.4"
       y="165.10001"
       width="76.199997"
       height="12.7"
       id="rect1751" />
  </defs>
  <sodipodi:namedview
     id="base"
     pagecolor="#ffffff"
     bordercolor="#666666"
     borderopacity="1.0"
     inkscape:pageopacity="0.0"
     inkscape:pageshadow="2"
     inkscape:zoom="0.0875"
     inkscape:cx="-1230.743"
     inkscape:cy="1665.2067"
     inkscape:document-units="px"
     inkscape:current-layer="layer1"
     inkscape:document-rotation="0"
     showgrid="false"
     units="px"
     inkscape:window-width="1758"
     inkscape:window-height="1030"
     inkscape:window-x="32"
     inkscape:window-y="0"
     inkscape:window-maximized="0" />
  <metadata
     id="metadata1805">
    <rdf:RDF>
      <cc:Work
         rdf:about="">
        <dc:format>image/svg+xml</dc:format>
        <dc:type
           rdf:resource="http://purl.org/dc/dcmitype/StillImage" />
        <dc:title></dc:title>
      </cc:Work>
    </rdf:RDF>
  </metadata>
  <g
     inkscape:label="Layer 1"
     inkscape:groupmode="layer"
     id="layer1">
    <path
       style="fill:#ffffff;stroke:#000000;stroke-width:0.264583px;stroke-linecap:butt;stroke-linejoin:miter;stroke-opacity:1"
       d="M 0.1322915,0.1322915 H 285.92692 V 508.13229 H 0.1322915 Z"
       id="path835-7" />
    <path
       style="fill:#e6e6e6;stroke:none;stroke-width:0.272039px;stroke-linecap:butt;stroke-linejoin:miter;stroke-opacity:1"
       d="M 12.626771,77.722526 H 130.762 V 194.63358 H 12.626771 Z"
       id="path841-3" />
    <path
       style="fill:#0000ff;stroke:#000000;stroke-width:0.269155px;stroke-linecap:butt;stroke-linejoin:miter;stroke-opacity:1"
       d="M 0.2404215,0.3915485 H 289.55664 V 52.322523 H 0.2404215 Z"
       id="path837-7" />
    <path
       style="fill:#ffffff;stroke:#000000;stroke-width:0.264583px;stroke-linecap:butt;stroke-linejoin:miter;stroke-opacity:1"
       d="M 12.637742,77.733495 H 126.93774 V 192.03348 H 12.637742 Z"
       id="path839-9" />
    <path
       style="fill:#e6e6e6;stroke:none;stroke-width:0.272039px;stroke-linecap:butt;stroke-linejoin:miter;stroke-opacity:1"
       d="M 152.32677,77.722526 H 270.462 V 194.63358 H 152.32677 Z"
       id="path841-5-3" />
    <path
       style="fill:#ffffff;stroke:#000000;stroke-width:0.264583px;stroke-linecap:butt;stroke-linejoin:miter;stroke-opacity:1"
       d="m 152.33774,77.733495 h 114.3 V 192.03348 h -114.3 z"
       id="path839-6-6" />
    <path
       style="fill:#e6e6e6;stroke:none;stroke-width:0.272039px;stroke-linecap:butt;stroke-linejoin:miter;stroke-opacity:1"
       d="M 12.637742,204.73348 H 130.77297 V 321.64456 H 12.637742 Z"
       id="path841-8-1" />
    <path
       style="fill:#ffffff;stroke:#000000;stroke-width:0.264583px;stroke-linecap:butt;stroke-linejoin:miter;stroke-opacity:1"
       d="M 12.648711,204.74444 H 126.94871 V 319.04445 H 12.648711 Z"
       id="path839-8-8" />
    <path
       style="fill:#e6e6e6;stroke:none;stroke-width:0.272039px;stroke-linecap:butt;stroke-linejoin:miter;stroke-opacity:1"
       d="M 152.33774,204.73348 H 270.47298 V 321.64456 H 152.33774 Z"
       id="path841-5-2-6" />
    <path
       style="fill:#ffffff;stroke:#000000;stroke-width:0.264583px;stroke-linecap:butt;stroke-linejoin:miter;stroke-opacity:1"
       d="M 152.34871,204.74446 H 266.64872 V 319.04445 H 152.34871 Z"
       id="path839-6-9-6" />
    <path
       style="fill:#000000;stroke-width:0.0707493"
       d="m 211.44003,160.22629 c -1.28156,-0.15602 -2.36686,-0.52483 -2.88612,-0.98076 -0.3212,-0.282 -0.96214,-1.23303 -1.20939,-1.79446 -0.32417,-0.73609 -0.58988,-1.6815 -0.92266,-3.28278 -0.58838,-2.83126 -0.88781,-3.5761 -1.80096,-4.48011 -0.9051,-0.89607 -1.82857,-1.24532 -3.1212,-1.18045 -1.04854,0.0526 -1.62651,0.25944 -3.74265,1.33928 -2.54348,1.29789 -3.42891,1.62982 -4.66164,1.74758 -0.73544,0.0702 -1.21805,-0.0176 -1.91205,-0.34795 -0.8382,-0.39901 -1.55237,-0.91557 -2.43558,-1.76163 -0.93755,-0.89813 -1.5809,-1.73343 -2.02095,-2.62399 l -0.33214,-0.67211 0.004,-0.81363 c 0.004,-0.72466 0.0292,-0.88623 0.23188,-1.47789 0.3263,-0.95277 0.79792,-1.82828 1.85262,-3.4392 1.45656,-2.22469 1.85181,-3.15376 1.85363,-4.35707 0.001,-0.71086 -0.13429,-1.24083 -0.4909,-1.92192 -0.63813,-1.21879 -1.66898,-1.91259 -3.91149,-2.63256 -2.94871,-0.94671 -3.66113,-1.23606 -4.61633,-1.87494 -0.78545,-0.52535 -1.26773,-1.07948 -1.5289,-1.75672 -0.78925,-2.04658 -0.74182,-5.23405 0.1042,-7.00238 0.19934,-0.41667 0.33454,-0.58711 0.714,-0.90011 1.08414,-0.89423 2.11935,-1.27897 5.15015,-1.91401 1.47347,-0.30873 2.25186,-0.53801 2.90498,-0.85567 1.84144,-0.89563 2.72374,-2.82531 2.2277,-4.87216 -0.19109,-0.7885 -0.3912,-1.24963 -1.35092,-3.11298 -1.15146,-2.23563 -1.47644,-3.10709 -1.61263,-4.3244 -0.0919,-0.82129 -0.002,-1.27943 0.41731,-2.13349 0.46559,-0.9477 1.22213,-1.94299 2.15109,-2.829919 0.80817,-0.7716 1.4408,-1.22768 2.20489,-1.58955 0.44312,-0.20986 0.54593,-0.23024 1.1584,-0.22964 1.18625,10e-4 2.32657,0.48672 4.81096,2.048559 0.7977,0.50148 1.72098,1.05053 2.05174,1.2201 1.69089,0.86693 3.07646,0.93534 4.52796,0.22356 1.2787,-0.62703 2.01893,-1.709399 2.75185,-4.023729 0.89038,-2.81158 1.21039,-3.59998 1.84372,-4.542317 0.68854,-1.024498 1.33886,-1.47584 2.57651,-1.78817 2.41787,-0.610159 5.58389,-0.277329 6.75777,0.71043 0.56565,0.475961 1.32858,1.860801 1.66357,3.019637 0.0983,0.34015 0.30844,1.2316 0.46691,1.98099 0.41951,1.9838 0.60344,2.62881 0.95795,3.359319 0.52423,1.08026 1.27828,1.76551 2.42074,2.19989 0.41876,0.15922 0.58488,0.18148 1.36133,0.18237 0.82228,0.001 0.93405,-0.0159 1.59187,-0.24032 0.38912,-0.13273 1.20097,-0.49293 1.80411,-0.80045 2.36709,-1.20687 2.74822,-1.38718 3.43135,-1.62334 1.46753,-0.507319 2.47998,-0.571799 3.3773,-0.215069 1.56656,0.622779 3.79959,2.676189 4.65443,4.280049 0.59286,1.11231 0.63752,1.86508 0.19435,3.27601 -0.24477,0.77927 -0.79043,1.78883 -1.8405,3.40524 -1.45946,2.2466 -1.84154,3.14009 -1.84154,4.30645 0,1.31743 0.62494,2.56703 1.66844,3.33616 0.80301,0.59189 1.28245,0.78763 4.39994,1.79639 1.81203,0.58633 2.99896,1.21424 3.80226,2.01148 1.15619,1.14745 1.60491,4.5451 0.93668,7.09228 -0.28956,1.10355 -0.58573,1.56908 -1.34132,2.10826 -1.11175,0.79332 -2.03527,1.11666 -4.85108,1.69846 -0.64374,0.133 -1.45402,0.324 -1.80063,0.42444 -2.80877,0.81396 -4.09377,3.10938 -3.2292,5.76838 0.12639,0.38872 0.62444,1.47302 1.17126,2.54997 1.03133,2.03118 1.16354,2.33119 1.42514,3.2339 0.2631,0.9079 0.33993,1.75443 0.21006,2.31443 -0.44895,1.93581 -3.13538,4.79903 -5.17957,5.52041 -1.3231,0.46692 -3.01124,-0.0481 -5.46879,-1.66831 -2.21874,-1.46279 -3.0116,-1.87442 -4.02362,-2.08893 -0.60692,-0.12863 -0.88563,-0.127 -1.55251,0.009 -1.36858,0.2793 -2.3786,1.09322 -3.06966,2.47368 -0.22091,0.44129 -0.54795,1.27959 -0.7581,1.94323 -0.63163,1.99461 -0.85912,2.62838 -1.21151,3.37503 -0.96987,2.05506 -1.83355,2.73685 -3.92524,3.09864 -0.80119,0.13857 -2.44134,0.18978 -3.18373,0.0994 z m 4.39771,-18.99281 c 3.42315,-0.44873 6.41601,-1.87664 8.96524,-4.27739 1.85596,-1.74785 3.47291,-4.45343 4.2071,-7.03956 0.5422,-1.90987 0.72072,-4.2333 0.47588,-6.19327 -0.65454,-5.23967 -3.80736,-9.73349 -8.49553,-12.10893 -2.28854,-1.15957 -4.50414,-1.68453 -7.10955,-1.68453 -1.4307,0 -2.60603,0.1405 -3.866,0.46214 -5.87022,1.49855 -10.35129,6.20525 -11.54971,12.13126 -0.23492,1.16161 -0.31173,2.17576 -0.27201,3.59137 0.0546,1.94448 0.35379,3.4773 1.0053,5.14986 0.83181,2.13543 1.95989,3.86458 3.57473,5.47942 2.61326,2.61326 5.6782,4.06836 9.58656,4.55129 0.60479,0.0747 2.72419,0.0372 3.47799,-0.0617 z"
       id="path899-7" />
    <text
       xml:space="preserve"
       id="text901-9"
       style="font-style:normal;font-weight:normal;font-size:10.5833px;line-height:1.25;font-family:sans-serif;white-space:pre;shape-inside:url(#rect903-4-0);fill:#000000;fill-opacity:1;stroke:none;"
       transform="translate(153.47991,-0.1674085)"><tspan
         x="25.400391"
         y="174.75507"><tspan>Configuração</tspan></tspan></text>
    <path
       style="fill:#000000;stroke-width:0.135377"
       d="m 64.404102,162.85548 c -0.74526,-0.20044 -1.94632,-0.98395 -2.35438,-1.53588 -0.15394,-0.20822 -0.42502,-0.65085 -0.60239,-0.98362 l -0.3225,-0.60504 -0.0369,-11.28345 c -0.0293,-8.95225 -0.0718,-11.27005 -0.20589,-11.21858 -0.093,0.0356 -4.24981,2.76781 -9.23743,6.07143 -6.51922,4.3181 -9.249418,6.05415 -9.7124,6.1758 -2.66479,0.70021 -5.29432,-0.97572 -5.796949,-3.69469 -0.25183,-1.36227 0.232108,-2.94259 1.209508,-3.94974 0.276903,-0.28533 4.882372,-3.43049 10.234381,-6.98926 l 9.73092,-6.47049 -9.26122,-6.13293 c -5.093678,-3.37311 -9.579419,-6.36223 -9.968319,-6.6425 -1.362231,-0.98171 -2.19769,-2.7822 -1.99948,-4.30905 0.377049,-2.90445 3.19696,-4.77909 5.938009,-3.94751 0.63632,0.19305 3.79467,2.23262 14.41265,9.30723 2.33297,1.55444 4.32705,2.85897 4.43128,2.89897 0.16133,0.0619 0.1949,-1.596 0.22567,-11.14331 l 0.0361,-11.216029 0.35894,-0.76561 c 0.89908,-1.91775 3.07443,-3.003287 5.13348,-2.561697 0.51518,0.110477 3.43191,1.601057 9.87101,5.044517 10.36658,5.543739 10.42039,5.574179 11.37687,6.434119 2.90371,2.61068 3.84201,6.72053 2.36447,10.35673 -0.44242,1.08883 -1.43779,2.5475 -2.21489,3.24582 -0.357,0.32081 -3.61391,2.55716 -7.23755,4.96966 -3.62366,2.4125 -6.58846,4.42973 -6.58846,4.48272 0,0.053 2.95695,2.06217 6.57101,4.46483 3.61404,2.40267 6.87093,4.63816 7.23755,4.96777 1.88804,1.69753 3.14252,4.8515 2.91951,7.34025 -0.12282,1.37066 -0.29909,2.05799 -0.82338,3.21078 -0.84286,1.85315 -2.09368,3.20227 -3.99152,4.30513 -2.90668,1.68913 -18.70923,10.03763 -19.28686,10.18928 -0.82675,0.21702 -1.56357,0.21224 -2.41091,-0.0156 z m 11.22512,-15.08389 c 2.89335,-1.55179 5.44205,-2.91623 5.66379,-3.0321 l 0.40314,-0.21067 -5.64543,-3.73676 c -3.10498,-2.0552 -5.67749,-3.73675 -5.71669,-3.73675 -0.0392,0 -0.0713,3.04599 -0.0713,6.76884 0,3.72287 0.0238,6.76885 0.0529,6.76885 0.0291,0 2.42019,-1.26963 5.31354,-2.82141 z m 0.50852,-31.93811 c 5.40479,-3.57083 5.5269,-3.66122 5.21099,-3.85727 -0.52537,-0.32607 -10.90515,-5.78682 -10.99956,-5.78682 -0.0475,0 -0.0864,3.02203 -0.0864,6.71564 0,5.33842 0.0349,6.70223 0.17024,6.6503 0.0936,-0.0359 2.66077,-1.71076 5.70474,-3.72185 z"
       id="path976-4" />
    <text
       xml:space="preserve"
       id="text901-1-2"
       style="font-style:normal;font-weight:normal;font-size:10.5833px;line-height:1.25;font-family:sans-serif;white-space:pre;shape-inside:url(#rect903-9-9-9);fill:#000000;fill-opacity:1;stroke:none;"
       transform="translate(17.917886,2.1090815)"><tspan
         x="25.400391"
         y="174.75507"><tspan>Conexão</tspan></tspan></text>
    <path
       style="fill:#000000;stroke-width:0.125809"
       d="m 34.704311,288.40776 c -0.429408,-0.17859 -0.5818,-0.46976 -0.652198,-1.24618 l -0.0675,-0.74354 -0.756459,-0.0686 c -0.918411,-0.0833 -1.274771,-0.37198 -1.274771,-1.03283 0,-0.67556 0.376611,-0.97761 1.302499,-1.04455 l 0.758701,-0.0549 0.0325,-29.73536 0.0325,-29.73533 0.280278,-0.28026 c 0.377122,-0.37714 1.075272,-0.37713 1.452401,0 l 0.280271,0.28026 0.0322,29.74961 0.0322,29.74963 29.749599,0.0322 29.74961,0.0322 0.280269,0.28022 c 0.37713,0.37714 0.37713,1.07529 0,1.45243 l -0.280269,0.28025 -29.73534,0.0325 -29.735339,0.0325 -0.0549,0.7587 c -0.0384,0.5307 -0.127968,0.83047 -0.298108,0.9975 -0.29768,0.29226 -0.785321,0.40614 -1.128271,0.2635 z m 34.257221,-10.83878 c -0.84919,-0.20024 -2.17137,-0.96129 -2.87766,-1.6564 -1.28493,-1.26455 -1.93324,-2.78577 -1.92015,-4.50546 0.0122,-1.61377 0.4424,-2.83189 1.49316,-4.22891 0.094,-0.12494 -0.4808,-0.77246 -2.3188,-2.61229 l -2.44374,-2.44615 -0.44901,0.35322 c -1.08163,0.85086 -2.37177,1.26737 -3.92586,1.26737 -1.44217,0 -2.60203,-0.40672 -4.04032,-1.41677 -0.19342,-0.13583 -0.45212,0.0772 -2.12396,1.74906 l -1.90372,1.90371 0.45254,0.5927 c 1.12363,1.47156 1.4966,3.86058 0.88358,5.65967 -0.77772,2.28248 -2.81846,3.99227 -5.20289,4.35914 -3.71941,0.57224 -7.30586,-2.54616 -7.295071,-6.34309 0.008,-2.9251 2.24826,-5.66168 5.123281,-6.25918 1.066099,-0.22156 2.581889,-0.0922 3.56102,0.30395 l 0.81243,0.32868 2.05152,-2.0506 2.05152,-2.0506 -0.30972,-0.93597 c -0.43999,-1.32967 -0.51624,-2.25447 -0.27942,-3.38894 0.42702,-2.0455 1.69724,-3.67002 3.57426,-4.57119 0.96754,-0.46454 1.15044,-0.50831 2.34676,-0.56151 1.0752,-0.0478 1.44756,-0.0121 2.17391,0.20852 2.09788,0.63721 3.82181,2.42983 4.37221,4.54644 0.29886,1.14924 0.20507,2.81451 -0.21725,3.85742 l -0.31386,0.77511 2.61353,2.61132 2.61353,2.61132 0.73272,-0.28802 c 0.52539,-0.20654 1.09414,-0.30599 2.01009,-0.3515 1.58856,-0.079 2.65911,0.206 3.85821,1.02692 l 0.80474,0.55097 4.6713,-4.67337 4.6713,-4.67337 -0.33065,-0.81743 c -0.90728,-2.24297 -0.32059,-4.98751 1.44323,-6.75131 2.55775,-2.55776 6.40186,-2.56922 8.98395,-0.0268 2.562439,2.52304 2.589739,6.44701 0.0625,8.97431 -2.20927,2.20926 -5.47002,2.54394 -8.04337,0.82551 l -0.75844,-0.50646 -1.46345,1.3759 c -0.8049,0.75675 -2.92691,2.8435 -4.71558,4.63726 l -3.25216,3.26134 0.20127,0.3892 c 0.29621,0.57282 0.57469,1.87219 0.57682,2.6915 0.007,2.76733 -1.8672,5.32061 -4.50908,6.1423 -0.85587,0.26622 -2.55761,0.32176 -3.4452,0.1125 z"
       id="path1021-1" />
    <text
       xml:space="preserve"
       id="text901-1-6-95"
       style="font-style:normal;font-weight:normal;font-size:10.5833px;line-height:1.25;font-family:sans-serif;white-space:pre;shape-inside:url(#rect903-9-5-0-1);fill:#000000;fill-opacity:1;stroke:none;"
       transform="translate(13.134563,127.64552)"><tspan
         x="25.400391"
         y="174.75507"><tspan>Relatório</tspan></tspan></text>
    <path
       style="fill:#000000;stroke-width:0.841857"
       d="m 183.1048,271.59222 c -8.34529,-2.24398 -12.34154,-8.67055 -12.34154,-19.84709 0,-11.5678 4.414,-18.19172 13.40779,-20.12055 5.63904,-1.20936 41.55476,-1.20936 47.1938,0 8.99381,1.92883 13.40779,8.55275 13.40779,20.12055 0,11.56781 -4.41398,18.19173 -13.40779,20.12057 -6.17929,1.32521 -43.09242,1.11604 -48.26005,-0.27348 z m 12.03531,-11.80332 v -3.74224 l 3.99881,-0.25658 3.99882,-0.25659 0.25887,-3.5779 0.25887,-3.57788 h -4.25768 -4.25769 v -4.20928 -4.20928 h -3.78835 -3.78836 v 4.20928 4.20928 h -4.25768 -4.25769 l 0.25887,3.57788 0.25887,3.5779 3.99882,0.25659 3.99881,0.25658 v 3.74224 3.74222 h 3.78836 3.78835 z m 41.18984,1.52404 c 2.41786,-3.0738 2.18881,-5.8859 -0.71597,-8.79071 -2.7744,-2.77439 -4.15902,-2.99888 -7.58126,-1.22917 -3.8896,2.0114 -4.60969,6.29898 -1.68284,10.01988 1.34584,1.71097 2.48689,2.21818 4.99006,2.21818 2.50313,0 3.64418,-0.50721 4.99001,-2.21818 z m -12.94938,-11.63419 c 4.17576,-4.17576 1.21683,-11.40332 -4.66847,-11.40332 -3.46098,0 -6.73486,3.27391 -6.73486,6.73485 0,1.64025 0.76382,3.36593 2.06638,4.66847 1.30253,1.30256 3.02823,2.06638 4.66848,2.06638 1.64025,0 3.36591,-0.76382 4.66847,-2.06638 z"
       id="path1067-7" />
    <text
       xml:space="preserve"
       id="text901-1-6-9-5"
       style="font-style:normal;font-weight:normal;font-size:10.5833px;line-height:1.25;font-family:sans-serif;white-space:pre;shape-inside:url(#rect903-9-5-6-4-4);fill:#000000;fill-opacity:1;stroke:none;"
       transform="translate(163.98966,125.04804)"><tspan
         x="25.400391"
         y="174.75507"><tspan>Controle</tspan></tspan></text>
    <rect
       style="opacity:1;fill:#000000;fill-opacity:0.2;stroke:none;stroke-width:0.26757;stroke-linecap:round"
       id="rect1231"
       width="285.74445"
       height="457.19998"
       x="0.090225495"
       y="52.322521" />
    <rect
       style="opacity:1;fill:#ffffff;fill-opacity:1;stroke:none;stroke-width:0.264583;stroke-linecap:round"
       id="rect1236"
       width="194.73448"
       height="509.39023"
       x="0.13230923"
       y="0.13229035" />
    <rect
       style="opacity:1;fill:#00008f;fill-opacity:1;stroke:none;stroke-width:0.237295;stroke-linecap:round"
       id="rect1238"
       width="194.66798"
       height="104.55627"
       x="0.19886807"
       y="0.13229035" />
    <text
       xml:space="preserve"
       id="text1240"
       style="font-style:normal;font-weight:normal;font-size:22.5778px;line-height:1.25;font-family:sans-serif;white-space:pre;shape-inside:url(#rect1242-2);fill:#000000;fill-opacity:1;stroke:none;"
       x="156.79335"
       y="0"
       transform="translate(-278.33161,3.8552295)"><tspan
         x="362.39667"
         y="39.842553"><tspan
           style="font-size:22.5778px;text-align:center;text-anchor:middle;fill:#ffffff">Irrigador </tspan></tspan><tspan
         x="358.65392"
         y="68.064805"><tspan
           style="font-size:22.5778px;text-align:center;text-anchor:middle;fill:#ffffff">bluetooth</tspan></tspan></text>
    <path
       id="path1522"
       style="fill:#ffffff;stroke-width:0.106501"
       d="m 23.660712,13.555619 c -0.966631,-0.0084 -2.91108,0.728907 -3.98691,1.53653 -0.19716,0.148015 -0.52618,0.38607 -0.730961,0.528749 -0.20482,0.142679 -0.70432,0.641367 -1.110169,1.108054 -1.25396,1.441709 -2.45133,3.93501 -2.32482,4.841313 0.0923,0.661258 1.19557,1.648192 2.49673,2.233804 0.4893,0.220221 0.98106,0.449751 1.09289,0.509789 0.31972,0.171703 1.634699,0.674513 2.39389,0.915514 0.504119,0.160028 0.991509,0.419525 1.799859,0.957646 1.032891,0.687624 1.136261,0.781146 1.514601,1.372638 0.51439,0.804177 0.90037,1.614257 1.551289,3.255489 0.28451,0.717375 0.62443,1.444744 0.755,1.616159 0.511071,0.670934 1.36404,5.370828 1.54369,8.505058 0.23201,4.048075 0.194781,7.440745 -0.11335,10.318385 -0.0388,0.365768 -0.0601,1.16995 -0.0463,1.787213 0.0461,2.064678 0.524992,2.688688 4.380381,5.707112 0.254019,0.19889 2.675419,1.92146 5.380609,3.828053 4.76349,3.357279 9.148771,6.22681 10.760341,7.040991 1.60826,0.812517 4.12529,0.603284 6.91164,-0.574672 1.80912,-0.76481 4.19006,-2.556156 5.9953,-4.510159 2.59729,-2.811352 5.63989,-8.287102 6.52319,-11.739901 0.28239,-1.10381 0.48831,-2.933605 0.42806,-3.803198 -0.0753,-1.087104 -0.4278,-2.85796 -0.70402,-3.536505 -0.63273,-1.554285 -1.80338,-3.001301 -3.76401,-4.653405 -3.57852,-3.015472 -8.58754,-6.517322 -10.60531,-7.414275 -3.47589,-1.545112 -5.85847,-1.813029 -9.75424,-1.09668 -3.213679,0.590931 -3.03626,0.524132 -5.889971,2.218217 -0.710118,0.42156 -1.907818,0.689213 -2.64459,0.590682 -0.462338,-0.06183 -0.65841,-0.158959 -1.448901,-0.715391 -0.798779,-0.562422 -0.984509,-0.743522 -1.468257,-1.431624 -0.708451,-1.00767 -1.307611,-2.03246 -1.24247,-2.125527 0.0279,-0.03984 0.0345,-0.154091 0.01479,-0.25363 -0.0486,-0.245033 -0.5143,-1.354725 -0.591119,-1.408451 -0.0338,-0.02365 -0.08,-0.117721 -0.10278,-0.20855 -0.02281,-0.09083 -0.27853,-0.703855 -0.56837,-1.362527 -0.469921,-1.067933 -1.059079,-2.647249 -1.691571,-4.534597 -0.11761,-0.350914 -0.295328,-1.065423 -0.394769,-1.587509 -0.15394,-0.808167 -0.28874,-1.332482 -0.738129,-2.872095 -0.317723,-1.088474 -1.166421,-2.915927 -1.698741,-3.657422 -0.46762,-0.651371 -1.31036,-1.315588 -1.74256,-1.373481 -0.0552,-0.0074 -0.11545,-0.01124 -0.17989,-0.0118 z m 25.59774,21.685846 c 0.20587,0.0016 0.4272,0.02334 0.66778,0.06278 0.7062,0.115771 1.94873,0.534244 2.73474,0.921411 4.18959,2.063692 8.86783,5.332693 10.96509,7.661584 0.72918,0.809681 1.50268,2.22145 1.49778,2.733906 -0.006,0.61831 -0.32205,1.200298 -0.69938,1.287534 -0.40384,0.09337 -2.30515,-0.248542 -3.3267,-0.598268 -0.88176,-0.301871 -1.8205,-0.858917 -6.84844,-4.065252 -1.89971,-1.211429 -5.3545,-3.606371 -6.08335,-4.216926 -0.18029,-0.15103 -0.57056,-0.535406 -0.86749,-0.854424 -0.66624,-0.715836 -0.68952,-0.973971 -0.15334,-1.717697 0.61937,-0.859239 1.22116,-1.221835 2.11331,-1.214646 z m -3.14386,9.956057 c 0.0643,0.0021 0.12887,0.01027 0.19298,0.02402 0.1283,0.02752 0.85467,0.398745 2.45836,1.256358 2.58184,1.380696 2.59511,1.388081 2.83332,1.602253 0.72318,0.650203 0.95699,1.673667 0.58901,2.57928 -0.11019,0.271179 -0.35796,0.634582 -0.5515,0.808501 -0.0889,0.0799 -0.90032,0.636973 -1.80281,1.237818 -0.90248,0.600848 -1.64058,1.103284 -1.64058,1.116481 0,0.0132 0.73627,0.513453 1.63637,1.111848 0.90011,0.598395 1.71108,1.155306 1.80238,1.237398 0.47024,0.422778 0.78272,1.208244 0.72719,1.82808 -0.0306,0.341368 -0.0742,0.512543 -0.20477,0.799651 -0.20991,0.461539 -0.52162,0.797573 -0.99428,1.072242 -0.72393,0.420688 -4.65955,2.499802 -4.80341,2.537571 -0.20589,0.05405 -0.38933,0.05298 -0.60037,-0.0038 -0.18562,-0.04992 -0.484829,-0.245094 -0.586469,-0.382553 -0.0383,-0.05186 -0.105812,-0.162327 -0.149992,-0.245205 l -0.0805,-0.15041 -0.009,-2.810161 c -0.007,-2.229602 -0.01749,-2.806967 -0.051,-2.794148 -0.0231,0.0089 -1.0586,0.689308 -2.300779,1.512091 -1.62365,1.075446 -2.303471,1.507921 -2.418771,1.538216 -0.663681,0.174392 -1.31867,-0.242975 -1.44385,-0.920147 -0.0627,-0.33928 0.0578,-0.732933 0.30125,-0.983766 0.069,-0.07106 1.21599,-0.85454 2.54894,-1.740868 l 2.423401,-1.611527 -2.30627,-1.52726 c -1.2686,-0.840089 -2.385952,-1.584695 -2.48281,-1.654497 -0.33927,-0.244499 -0.547341,-0.692814 -0.497991,-1.073087 0.0939,-0.723368 0.79616,-1.190453 1.478809,-0.983345 0.158491,0.04808 0.945131,0.556099 3.589591,2.318068 0.581049,0.38714 1.077471,0.712168 1.103421,0.722132 0.0402,0.01543 0.0487,-0.397388 0.0565,-2.775193 l 0.009,-2.79373 0.0893,-0.190434 c 0.195929,-0.41792 0.63542,-0.677281 1.08573,-0.661882 z m 1.1224,3.094548 c -0.0118,0 -0.0215,0.752702 -0.0215,1.672616 0,1.329558 0.009,1.669116 0.0426,1.656181 0.0233,-0.0089 0.66256,-0.426016 1.42069,-0.926889 1.34608,-0.88933 1.37633,-0.911767 1.29764,-0.960593 -0.13085,-0.08121 -2.71587,-1.441315 -2.73938,-1.441315 z m -0.004,7.687286 c -0.01,0 -0.0177,0.758902 -0.0177,1.686097 0,0.927198 0.006,1.685674 0.013,1.685674 0.007,0 0.60275,-0.31627 1.32336,-0.70275 0.72061,-0.386482 1.35534,-0.726135 1.41054,-0.754994 l 0.1007,-0.05267 -1.40591,-0.93068 c -0.77305,-0.511855 -1.41399,-0.93068 -1.42376,-0.93068 z" />
    <path
       style="fill:#000000;stroke-width:0.0482097"
       d="m 24.732652,167.49759 c -0.26539,-0.0714 -0.69311,-0.3504 -0.83843,-0.54695 -0.0548,-0.0742 -0.15135,-0.23178 -0.21451,-0.35028 l -0.114851,-0.21547 -0.0131,-4.01818 c -0.0104,-3.18802 -0.0256,-4.01342 -0.0733,-3.99509 -0.0331,0.0127 -1.51341,0.98565 -3.28957,2.16212 -2.32159,1.53773 -3.29385,2.15596 -3.45872,2.19928 -0.94897,0.24936 -1.88538,-0.34746 -2.06437,-1.31573 -0.0897,-0.48512 0.0827,-1.04789 0.43072,-1.40655 0.0986,-0.10161 1.73868,-1.22165 3.6446,-2.48897 l 3.46532,-2.30423 -3.29805,-2.18402 c -1.81393,-1.20121 -3.41136,-2.26567 -3.54985,-2.36548 -0.48511,-0.3496 -0.78263,-0.99078 -0.71204,-1.53451 0.13426,-1.03432 1.13847,-1.7019 2.1146,-1.40576 0.2266,0.0687 1.35133,0.79506 5.13254,3.31443 0.8308,0.55355 1.54092,1.01811 1.57804,1.03236 0.0575,0.022 0.0694,-0.56836 0.0804,-3.96829 l 0.0129,-3.99418 0.12781,-0.27264 c 0.32018,-0.68293 1.09485,-1.06951 1.82811,-0.91226 0.18346,0.0393 1.22214,0.57016 3.515202,1.79642 3.69167,1.97421 3.710839,1.98505 4.051448,2.29128 1.034047,0.9297 1.36819,2.39328 0.842029,3.68817 -0.157557,0.38775 -0.512027,0.9072 -0.788758,1.15588 -0.127129,0.11425 -1.286959,0.91064 -2.577391,1.76977 -1.290428,0.85912 -2.34624,1.57748 -2.34624,1.59635 0,0.0189 1.05301,0.73437 2.340031,1.58999 1.28701,0.85562 2.446829,1.65171 2.57738,1.76909 0.67237,0.60451 1.1191,1.72768 1.03968,2.61396 -0.0437,0.48811 -0.1065,0.73288 -0.293219,1.1434 -0.300151,0.65994 -0.74558,1.14038 -1.421432,1.53312 -1.035108,0.60152 -6.66261,3.57453 -6.86831,3.62854 -0.29441,0.0773 -0.5568,0.0756 -0.85855,-0.006 z m 3.99742,-5.37158 c 1.030359,-0.55261 1.937988,-1.03851 2.016951,-1.07977 l 0.143568,-0.075 -2.010418,-1.33071 c -1.10572,-0.73188 -2.021832,-1.3307 -2.035792,-1.3307 -0.014,0 -0.0254,1.08472 -0.0254,2.41047 0,1.32577 0.008,2.41048 0.01881,2.41048 0.0104,0 0.861859,-0.45213 1.892218,-1.00474 z m 0.181089,-11.37359 c 1.924722,-1.27162 1.968201,-1.30381 1.8557,-1.37363 -0.18709,-0.11612 -3.883469,-2.06076 -3.91709,-2.06076 -0.01691,0 -0.0308,1.07618 -0.0308,2.39153 0,1.90108 0.01241,2.38675 0.0606,2.36826 0.0333,-0.0128 0.947531,-0.60923 2.031532,-1.3254 z"
       id="path976-2" />
    <text
       xml:space="preserve"
       id="text901-1-4"
       style="font-style:normal;font-weight:normal;font-size:16.9333px;line-height:1.25;font-family:sans-serif;white-space:pre;shape-inside:url(#rect903-9-4);fill:#000000;fill-opacity:1;stroke:none;"
       transform="translate(24.216451,-18.900189)"><tspan
         x="25.400391"
         y="180.54837"><tspan
           style="font-size:16.9333px">Conexão</tspan></tspan></text>
    <path
       style="fill:#000000;stroke-width:0.0287226"
       d="m 22.805562,210.43233 c -0.520281,-0.0633 -0.96088,-0.21307 -1.1717,-0.39817 -0.13039,-0.11448 -0.3906,-0.50058 -0.49097,-0.72851 -0.131611,-0.29883 -0.23948,-0.68265 -0.37458,-1.33273 -0.23887,-1.14943 -0.360431,-1.45181 -0.73115,-1.81882 -0.367451,-0.36379 -0.74236,-0.50557 -1.26713,-0.47924 -0.42569,0.0214 -0.66033,0.10533 -1.51944,0.54372 -1.032591,0.52691 -1.392051,0.66167 -1.89251,0.70948 -0.298571,0.0285 -0.49451,-0.007 -0.77625,-0.14126 -0.34029,-0.16199 -0.63023,-0.3717 -0.98879,-0.71518 -0.38063,-0.36462 -0.64181,-0.70374 -0.820461,-1.06528 l -0.134839,-0.27286 0.002,-0.33032 c 0.002,-0.29419 0.0118,-0.35979 0.0941,-0.59999 0.13247,-0.3868 0.323941,-0.74224 0.75212,-1.39623 0.59133,-0.90318 0.751801,-1.28036 0.75253,-1.76887 3.97e-4,-0.2886 -0.0545,-0.50375 -0.199289,-0.78026 -0.259071,-0.4948 -0.677571,-0.77647 -1.587971,-1.06876 -1.19711,-0.38434 -1.48634,-0.50181 -1.87413,-0.76118 -0.31887,-0.21328 -0.51467,-0.43824 -0.6206894,-0.71319 -0.32042,-0.83086 -0.30117,-2.1249 0.0423,-2.8428 0.0809,-0.16916 0.1358094,-0.23835 0.2898694,-0.36542 0.44013,-0.36304 0.8604,-0.51924 2.09084,-0.77705 0.59819,-0.12533 0.9142,-0.21842 1.17935,-0.34738 0.74758,-0.3636 1.10578,-1.14701 0.9044,-1.97798 -0.0776,-0.32012 -0.15882,-0.50732 -0.54845,-1.2638 -0.46746,-0.90762 -0.5994,-1.26141 -0.65469,-1.75561 -0.0373,-0.33342 -8.2e-4,-0.51942 0.16942,-0.86615 0.18902,-0.38474 0.49616,-0.7888 0.87329,-1.14888 0.3281,-0.31325 0.58494,-0.49841 0.895141,-0.64532 0.1799,-0.0852 0.221629,-0.0935 0.470279,-0.0932 0.481591,5.3e-4 0.94454,0.1976 1.95314,0.83167 0.32385,0.20359 0.69868,0.42649 0.83296,0.49533 0.68646,0.35196 1.24897,0.37973 1.83825,0.0908 0.519121,-0.25456 0.81964,-0.69397 1.11718,-1.63354 0.361481,-1.14143 0.49139,-1.46151 0.74851,-1.84408 0.27953,-0.41592 0.54355,-0.59915 1.046,-0.72595 0.9816,-0.24771 2.26693,-0.11259 2.7435,0.28841 0.229641,0.19323 0.539381,0.75545 0.675369,1.22591 0.0399,0.1381 0.125222,0.5 0.189561,0.80423 0.17031,0.80538 0.24498,1.06724 0.3889,1.36381 0.212831,0.43856 0.518959,0.71676 0.982771,0.89311 0.17,0.0646 0.237448,0.0737 0.55267,0.074 0.333819,2.6e-4 0.379198,-0.006 0.646258,-0.0976 0.157972,-0.0539 0.487561,-0.20012 0.73243,-0.32496 0.96098,-0.48996 1.115711,-0.56317 1.393042,-0.65904 0.595789,-0.20596 1.006819,-0.23214 1.37111,-0.0873 0.63599,0.25283 1.54255,1.08647 1.889589,1.7376 0.240691,0.45157 0.25882,0.75718 0.0789,1.32998 -0.0994,0.31637 -0.320892,0.72623 -0.747202,1.38245 -0.592508,0.91207 -0.74762,1.2748 -0.74762,1.74832 0,0.53485 0.253712,1.04215 0.677352,1.3544 0.325998,0.2403 0.520639,0.31976 1.786268,0.7293 0.735642,0.23803 1.217512,0.49295 1.543632,0.81661 0.46939,0.46584 0.651558,1.84521 0.38027,2.8793 -0.117552,0.44802 -0.237792,0.63701 -0.544542,0.85591 -0.45135,0.32207 -0.82628,0.45333 -1.969428,0.68953 -0.26134,0.054 -0.590302,0.13154 -0.73101,0.17231 -1.140301,0.33045 -1.66198,1.26234 -1.310981,2.34183 0.0513,0.15781 0.2535,0.59801 0.475501,1.03523 0.418698,0.82461 0.472369,0.94641 0.57857,1.31289 0.10682,0.36859 0.138009,0.71226 0.0853,0.93961 -0.182261,0.78589 -1.272889,1.94829 -2.102779,2.24115 -0.537151,0.18956 -1.222502,-0.0195 -2.2202,-0.67729 -0.900761,-0.59386 -1.22264,-0.76097 -1.633501,-0.84806 -0.246401,-0.0522 -0.35955,-0.0516 -0.63028,0.004 -0.555619,0.11338 -0.96566,0.44382 -1.246211,1.00425 -0.0897,0.17916 -0.222458,0.51949 -0.307779,0.78891 -0.25642,0.80976 -0.348779,1.06706 -0.49184,1.37018 -0.39375,0.83431 -0.744379,1.1111 -1.59356,1.25798 -0.32526,0.0563 -0.99112,0.077 -1.29252,0.0403 z m 1.78538,-7.71064 c 1.38972,-0.18218 2.60474,-0.76188 3.639671,-1.73653 0.753478,-0.70958 1.409927,-1.80798 1.707978,-2.85789 0.22012,-0.77537 0.2926,-1.71863 0.193201,-2.51433 -0.265721,-2.12718 -1.545701,-3.95157 -3.448992,-4.91594 -0.929089,-0.47076 -1.828568,-0.68388 -2.886309,-0.68388 -0.580819,0 -1.057979,0.057 -1.569499,0.18762 -2.38317,0.60837 -4.20238,2.51918 -4.688921,4.92501 -0.0954,0.47158 -0.126549,0.8833 -0.110419,1.45801 0.0222,0.78941 0.143629,1.4117 0.408129,2.09072 0.337691,0.86694 0.795671,1.56893 1.451251,2.22452 1.06093,1.06092 2.305219,1.65166 3.89192,1.84772 0.245529,0.0303 1.10596,0.0151 1.41199,-0.0251 z"
       id="path899-4" />
    <text
       xml:space="preserve"
       id="text901-5"
       style="font-style:normal;font-weight:normal;font-size:16.9333px;line-height:1.25;font-family:sans-serif;white-space:pre;shape-inside:url(#rect903-0);fill:#000000;fill-opacity:1;stroke:none;"
       transform="translate(29.126696,24.29713)"><tspan
         x="25.400391"
         y="180.54837"><tspan
           style="font-size:16.9333px">Configuração</tspan></tspan></text>
    <path
       style="fill:#000000;stroke-width:0.0431662"
       d="m 14.217751,244.65449 c -0.14733,-0.0613 -0.199619,-0.16119 -0.22377,-0.42759 l -0.0232,-0.25511 -0.25955,-0.0235 c -0.31512,-0.0286 -0.43739,-0.12762 -0.43739,-0.35436 0,-0.23181 0.12922,-0.33544 0.4469,-0.35841 l 0.26032,-0.0188 0.0112,-10.20249 0.0111,-10.2025 0.0962,-0.0962 c 0.12939,-0.12939 0.36893,-0.12939 0.49833,0 l 0.0962,0.0962 0.0111,10.20738 0.0111,10.2074 10.20739,0.011 10.20739,0.011 0.0962,0.0962 c 0.129402,0.12939 0.129402,0.36893 0,0.49833 l -0.0962,0.0962 -10.20249,0.0111 -10.2025,0.0112 -0.0188,0.26031 c -0.0132,0.18209 -0.0439,0.28495 -0.10229,0.34226 -0.102139,0.10027 -0.269449,0.13934 -0.387119,0.0904 z m 11.754001,-3.71891 c -0.291361,-0.0687 -0.74502,-0.32982 -0.98735,-0.56832 -0.44087,-0.43388 -0.66332,-0.95583 -0.65883,-1.54587 0.004,-0.5537 0.1518,-0.97165 0.512319,-1.45098 0.0323,-0.0429 -0.164959,-0.26504 -0.7956,-0.8963 l -0.838469,-0.8393 -0.15406,0.12119 c -0.371121,0.29194 -0.81378,0.43485 -1.347011,0.43485 -0.49482,0 -0.892779,-0.13955 -1.386269,-0.48611 -0.0664,-0.0466 -0.155121,0.0265 -0.72875,0.60012 l -0.65319,0.65319 0.155269,0.20335 c 0.385531,0.50491 0.513501,1.32461 0.303171,1.9419 -0.26684,0.78314 -0.967041,1.36978 -1.785161,1.49566 -1.276169,0.19634 -2.506719,-0.87362 -2.503019,-2.17638 0.003,-1.00363 0.7714,-1.94258 1.75785,-2.14759 0.36579,-0.076 0.88587,-0.0316 1.22182,0.10429 l 0.278759,0.11278 0.703901,-0.70358 0.703889,-0.70359 -0.106269,-0.32114 c -0.15096,-0.45622 -0.17712,-0.77353 -0.0959,-1.16278 0.146511,-0.70183 0.58234,-1.25922 1.226371,-1.56842 0.331969,-0.15939 0.39473,-0.1744 0.805189,-0.19266 0.368911,-0.0164 0.49667,-0.004 0.74589,0.0716 0.719811,0.21863 1.311301,0.8337 1.50016,1.55992 0.10253,0.39432 0.0704,0.96569 -0.0745,1.32353 l -0.10769,0.26594 0.89673,0.89597 0.89673,0.89597 0.2514,-0.0988 c 0.18027,-0.0709 0.375419,-0.10499 0.689689,-0.12061 0.545052,-0.0271 0.912359,0.0707 1.323792,0.35236 l 0.276108,0.18904 1.60277,-1.60348 1.602771,-1.60348 -0.11345,-0.28047 c -0.311301,-0.76959 -0.10999,-1.71126 0.495188,-2.31645 0.877592,-0.87759 2.196542,-0.88152 3.082481,-0.009 0.8792,0.86568 0.888571,2.21203 0.02151,3.07918 -0.758029,0.75803 -1.87682,0.87285 -2.759761,0.28324 l -0.260228,-0.17378 -0.502132,0.47209 c -0.276169,0.25965 -1.004249,0.97564 -1.617958,1.59109 l -1.115841,1.119 0.0691,0.13353 c 0.101629,0.19655 0.197178,0.64237 0.197909,0.92349 0.0021,0.9495 -0.640649,1.82556 -1.547109,2.10749 -0.293661,0.0913 -0.877541,0.1104 -1.182081,0.0386 z"
       id="path1021-0" />
    <text
       xml:space="preserve"
       id="text901-1-6-6"
       style="font-style:normal;font-weight:normal;font-size:10.5833px;line-height:1.25;font-family:sans-serif;white-space:pre;shape-inside:url(#rect903-9-5-4);fill:#000000;fill-opacity:1;stroke:none;"
       transform="matrix(1.6427337,0,0,1.6427337,12.165845,-48.175619)"><tspan
         x="25.400391"
         y="174.75507"><tspan>Relatório</tspan></tspan></text>
    <path
       style="fill:#000000;stroke-width:0.259006"
       d="m 18.773232,277.93026 c -2.56751,-0.69037 -3.797001,-2.66758 -3.797001,-6.10616 0,-3.55896 1.358011,-5.59686 4.125051,-6.19029 1.73491,-0.37206 12.784759,-0.37206 14.519669,0 2.767031,0.59343 4.125042,2.63133 4.125042,6.19029 0,3.55897 -1.358011,5.59689 -4.125042,6.1903 -1.90113,0.40772 -13.257839,0.34338 -14.847719,-0.0841 z m 3.70279,-3.6314 v -1.15134 l 1.23028,-0.0789 1.23028,-0.0789 0.0796,-1.1008 0.0796,-1.10075 h -1.30993 -1.309921 v -1.29503 -1.29503 h -1.16552 -1.165529 v 1.29503 1.29503 h -1.30992 -1.30992 l 0.0796,1.10075 0.0796,1.1008 1.23028,0.0789 1.230279,0.0789 v 1.15134 1.15133 h 1.165531 1.16552 z m 12.67249,0.46889 c 0.743878,-0.9457 0.673409,-1.81086 -0.220282,-2.70454 -0.853569,-0.85357 -1.279559,-0.92266 -2.332447,-0.37817 -1.196671,0.61881 -1.418223,1.93794 -0.517742,3.08271 0.414059,0.52639 0.765122,0.68244 1.535242,0.68244 0.770117,0 1.121169,-0.15605 1.535229,-0.68244 z m -3.984019,-3.57939 c 1.284718,-1.28471 0.37438,-3.50835 -1.436301,-3.50835 -1.0648,0 -2.07205,1.00725 -2.07205,2.07206 0,0.50464 0.235,1.03556 0.63574,1.43629 0.400749,0.40077 0.93167,0.63574 1.43631,0.63574 0.504639,0 1.03556,-0.23497 1.436301,-0.63574 z"
       id="path1067-4" />
    <text
       xml:space="preserve"
       id="text901-1-6-9-1"
       style="font-style:normal;font-weight:normal;font-size:10.5833px;line-height:1.25;font-family:sans-serif;white-space:pre;shape-inside:url(#rect903-9-5-6-2);fill:#000000;fill-opacity:1;stroke:none;"
       transform="matrix(1.5533283,0,0,1.5533283,18.397496,3.6665555)"><tspan
         x="25.400391"
         y="174.75507"><tspan>Controle</tspan></tspan></text>
  </g>
</svg>
