<?xml version="1.0" encoding="UTF-8" standalone="no"?>
<svg
   xmlns:dc="http://purl.org/dc/elements/1.1/"
   xmlns:cc="http://creativecommons.org/ns#"
   xmlns:rdf="http://www.w3.org/1999/02/22-rdf-syntax-ns#"
   xmlns:svg="http://www.w3.org/2000/svg"
   xmlns="http://www.w3.org/2000/svg"
   xmlns:sodipodi="http://sodipodi.sourceforge.net/DTD/sodipodi-0.dtd"
   xmlns:inkscape="http://www.inkscape.org/namespaces/inkscape"
   width="1080"
   height="1920"
   viewBox="0 0 285.74999 508.00002"
   version="1.1"
   id="svg8"
   sodipodi:docname="tela_inicial.svg"
   inkscape:version="1.0.1 (3bc2e813f5, 2020-09-07)">
  <defs
     id="defs2">
    <rect
       x="355.46847"
       y="19.243406"
       width="113.85682"
       height="63.075609"
       id="rect1242" />
    <rect
       x="25.4"
       y="165.1"
       width="76.2"
       height="12.7"
       id="rect903" />
    <rect
       x="25.4"
       y="165.10001"
       width="76.199997"
       height="12.7"
       id="rect903-9" />
    <rect
       x="25.4"
       y="165.10001"
       width="76.199997"
       height="12.7"
       id="rect987" />
    <rect
       x="25.4"
       y="165.10001"
       width="76.199997"
       height="12.7"
       id="rect903-9-5" />
    <rect
       x="25.4"
       y="165.10001"
       width="76.199997"
       height="12.7"
       id="rect1032" />
    <rect
       x="25.4"
       y="165.10001"
       width="76.199997"
       height="12.7"
       id="rect903-9-5-6" />
    <rect
       x="25.4"
       y="165.10001"
       width="76.199997"
       height="12.7"
       id="rect1078" />
    <rect
       x="25.4"
       y="165.10001"
       width="76.199997"
       height="12.7"
       id="rect903-4" />
    <rect
       x="25.4"
       y="165.10001"
       width="76.199997"
       height="12.7"
       id="rect1107" />
    <rect
       x="25.4"
       y="165.10001"
       width="76.199997"
       height="12.7"
       id="rect903-9-9" />
    <rect
       x="25.4"
       y="165.10001"
       width="76.199997"
       height="12.7"
       id="rect1110" />
    <rect
       x="25.4"
       y="165.10001"
       width="76.199997"
       height="12.7"
       id="rect903-9-5-0" />
    <rect
       x="25.4"
       y="165.10001"
       width="76.199997"
       height="12.7"
       id="rect1113" />
    <rect
       x="25.4"
       y="165.10001"
       width="76.199997"
       height="12.7"
       id="rect903-9-5-6-4" />
    <rect
       x="25.4"
       y="165.10001"
       width="76.199997"
       height="12.7"
       id="rect1116" />
    <rect
       x="25.4"
       y="165.10001"
       width="76.199997"
       height="12.7"
       id="rect903-4-0" />
    <rect
       x="25.4"
       y="165.10001"
       width="76.199997"
       height="12.7"
       id="rect1255" />
    <rect
       x="25.4"
       y="165.10001"
       width="76.199997"
       height="12.7"
       id="rect903-9-9-9" />
    <rect
       x="25.4"
       y="165.10001"
       width="76.199997"
       height="12.7"
       id="rect1258" />
    <rect
       x="25.4"
       y="165.10001"
       width="76.199997"
       height="12.7"
       id="rect903-9-5-0-1" />
    <rect
       x="25.4"
       y="165.10001"
       width="76.199997"
       height="12.7"
       id="rect1261" />
    <rect
       x="25.4"
       y="165.10001"
       width="76.199997"
       height="12.7"
       id="rect903-9-5-6-4-4" />
    <rect
       x="25.4"
       y="165.10001"
       width="76.199997"
       height="12.7"
       id="rect1264" />
    <rect
       x="355.46848"
       y="19.243406"
       width="113.85682"
       height="63.075607"
       id="rect1242-2" />
    <rect
       x="355.46848"
       y="19.243406"
       width="113.85682"
       height="63.075607"
       id="rect1267" />
    <rect
       x="25.4"
       y="165.10001"
       width="106.43809"
       height="25.173214"
       id="rect903-9-4" />
    <rect
       x="25.4"
       y="165.10001"
       width="76.199997"
       height="12.7"
       id="rect1564" />
    <rect
       x="25.4"
       y="165.10001"
       width="114.68681"
       height="38.357875"
       id="rect903-0" />
    <rect
       x="25.4"
       y="165.10001"
       width="76.199997"
       height="12.7"
       id="rect1609" />
    <rect
       x="25.4"
       y="165.10001"
       width="76.199997"
       height="12.7"
       id="rect903-9-5-4" />
    <rect
       x="25.4"
       y="165.10001"
       width="76.199997"
       height="12.7"
       id="rect1653" />
    <rect
       x="25.4"
       y="165.10001"
       width="76.199997"
       height="12.7"
       id="rect903-9-5-6-2" />
    <rect
       x="25.4"
       y="165.10001"
       width="76.199997"
       height="12.7"
       id="rect1697" />
  </defs>
  <sodipodi:namedview
     id="base"
     pagecolor="#ffffff"
     bordercolor="#666666"
     borderopacity="1.0"
     inkscape:pageopacity="0.0"
     inkscape:pageshadow="2"
     inkscape:zoom="0.175"
     inkscape:cx="480.62183"
     inkscape:cy="860.59284"
     inkscape:document-units="px"
     inkscape:current-layer="layer1"
     inkscape:document-rotation="0"
     showgrid="true"
     units="px"
     inkscape:pagecheckerboard="true"
     inkscape:window-width="1758"
     inkscape:window-height="1030"
     inkscape:window-x="144"
     inkscape:window-y="0"
     inkscape:window-maximized="0" />
  <metadata
     id="metadata5">
    <rdf:RDF>
      <cc:Work
         rdf:about="">
        <dc:format>image/svg+xml</dc:format>
        <dc:type
           rdf:resource="http://purl.org/dc/dcmitype/StillImage" />
        <dc:title></dc:title>
      </cc:Work>
    </rdf:RDF>
  </metadata>
  <g
     inkscape:label="Layer 1"
     inkscape:groupmode="layer"
     id="layer1">
    <path
       style="fill:#ffffff;stroke:#000000;stroke-width:0.264583px;stroke-linecap:butt;stroke-linejoin:miter;stroke-opacity:1"
       d="M 0.19455143,-1.4011981 H 285.98919 V 506.59879 H 0.19455143 Z"
       id="path835" />
    <path
       style="fill:#e6e6e6;stroke:none;stroke-width:0.27204px;stroke-linecap:butt;stroke-linejoin:miter;stroke-opacity:1"
       d="M 12.68903,76.18903 H 130.82426 V 193.1001 H 12.68903 Z"
       id="path841" />
    <path
       style="fill:#0000ff;stroke:#000000;stroke-width:0.267326px;stroke-linecap:butt;stroke-linejoin:miter;stroke-opacity:1"
       d="M 0,-1.0586465 H 285.79463 V 50.799999 H 0 Z"
       id="path837" />
    <path
       style="fill:#ffffff;stroke:#000000;stroke-width:0.264583px;stroke-linecap:butt;stroke-linejoin:miter;stroke-opacity:1"
       d="M 12.7,76.199999 H 127 V 190.5 H 12.7 Z"
       id="path839" />
    <path
       style="fill:#e6e6e6;stroke:none;stroke-width:0.272039px;stroke-linecap:butt;stroke-linejoin:miter;stroke-opacity:1"
       d="M 152.38903,76.189033 H 270.52426 V 193.1001 H 152.38903 Z"
       id="path841-5" />
    <path
       style="fill:#ffffff;stroke:#000000;stroke-width:0.264583px;stroke-linecap:butt;stroke-linejoin:miter;stroke-opacity:1"
       d="M 152.4,76.200002 H 266.7 V 190.5 H 152.4 Z"
       id="path839-6" />
    <path
       style="fill:#e6e6e6;stroke:none;stroke-width:0.272039px;stroke-linecap:butt;stroke-linejoin:miter;stroke-opacity:1"
       d="M 12.7,203.19999 H 130.83523 V 320.11106 H 12.7 Z"
       id="path841-8" />
    <path
       style="fill:#ffffff;stroke:#000000;stroke-width:0.264583px;stroke-linecap:butt;stroke-linejoin:miter;stroke-opacity:1"
       d="m 12.71097,203.21096 h 114.3 v 114.3 h -114.3 z"
       id="path839-8" />
    <path
       style="fill:#e6e6e6;stroke:none;stroke-width:0.272039px;stroke-linecap:butt;stroke-linejoin:miter;stroke-opacity:1"
       d="M 152.4,203.2 H 270.53524 V 320.11106 H 152.4 Z"
       id="path841-5-2" />
    <path
       style="fill:#ffffff;stroke:#000000;stroke-width:0.264583px;stroke-linecap:butt;stroke-linejoin:miter;stroke-opacity:1"
       d="m 152.41097,203.21097 h 114.3 v 114.29999 h -114.3 z"
       id="path839-6-9" />
    <path
       style="fill:#000000;stroke-width:0.0707494"
       d="m 211.50227,158.69281 c -1.28155,-0.15602 -2.36684,-0.52483 -2.88612,-0.98076 -0.32118,-0.282 -0.96212,-1.23303 -1.20937,-1.79446 -0.32417,-0.73609 -0.58989,-1.6815 -0.92266,-3.28278 -0.58839,-2.83126 -0.88781,-3.5761 -1.80096,-4.48011 -0.90511,-0.89607 -1.82858,-1.24532 -3.1212,-1.18045 -1.04854,0.0526 -1.62652,0.25944 -3.74266,1.33928 -2.54347,1.29789 -3.4289,1.62982 -4.66163,1.74758 -0.73544,0.0702 -1.21807,-0.0176 -1.91205,-0.34795 -0.8382,-0.39901 -1.55237,-0.91557 -2.43558,-1.76163 -0.93756,-0.89813 -1.5809,-1.73343 -2.02096,-2.62399 l -0.33213,-0.67211 0.004,-0.81363 c 0.004,-0.72466 0.0292,-0.88623 0.23188,-1.47789 0.3263,-0.95277 0.79792,-1.82828 1.85262,-3.4392 1.45656,-2.22469 1.85181,-3.15376 1.85363,-4.35707 0.001,-0.71086 -0.13429,-1.24083 -0.4909,-1.92192 -0.63813,-1.21879 -1.66898,-1.91259 -3.91149,-2.63256 -2.94871,-0.94671 -3.66113,-1.23606 -4.61633,-1.87494 -0.78545,-0.52535 -1.26773,-1.07948 -1.5289,-1.75672 -0.78925,-2.04658 -0.74182,-5.23405 0.1042,-7.00238 0.19934,-0.41667 0.33454,-0.58711 0.714,-0.90011 1.08414,-0.89423 2.11935,-1.27897 5.15015,-1.91401 1.47347,-0.30873 2.25186,-0.53801 2.90498,-0.85567 1.84144,-0.89563 2.72374,-2.82531 2.2277,-4.87216 -0.19109,-0.7885 -0.3912,-1.24963 -1.35092,-3.11298 -1.15146,-2.23563 -1.47644,-3.10709 -1.61263,-4.3244 -0.0919,-0.82129 -0.002,-1.27943 0.41731,-2.13349 0.46559,-0.9477 1.22213,-1.94299 2.15109,-2.829923 0.80817,-0.771605 1.4408,-1.227683 2.20489,-1.589552 0.44312,-0.20986 0.54593,-0.23024 1.1584,-0.229639 1.18625,0.0011 2.32657,0.486721 4.81096,2.048558 0.7977,0.501481 1.72098,1.05053 2.05174,1.220109 1.69089,0.866927 3.07646,0.935337 4.52796,0.223557 1.2787,-0.627032 2.01893,-1.709403 2.75185,-4.023733 0.89038,-2.811578 1.21039,-3.599977 1.84372,-4.542325 0.68854,-1.0245 1.33886,-1.47584 2.57651,-1.788167 2.41787,-0.610166 5.58389,-0.27733 6.75777,0.710429 0.56565,0.47596 1.32858,1.860798 1.66357,3.019645 0.0983,0.340151 0.30844,1.231594 0.46691,1.980985 0.41951,1.983802 0.60344,2.628816 0.95795,3.359324 0.52423,1.080257 1.27828,1.765512 2.42074,2.199892 0.41876,0.15922 0.58488,0.18148 1.36133,0.18237 0.82228,9.4e-4 0.93405,-0.0159 1.59187,-0.24032 0.38912,-0.13273 1.20097,-0.49293 1.80411,-0.80045 2.36709,-1.206873 2.74822,-1.387186 3.43135,-1.623342 1.46753,-0.507324 2.47998,-0.571798 3.3773,-0.215069 1.56656,0.622781 3.79959,2.676191 4.65443,4.280051 0.59286,1.11231 0.63752,1.86508 0.19435,3.27601 -0.24477,0.77927 -0.79043,1.78883 -1.8405,3.40524 -1.45946,2.2466 -1.84154,3.14009 -1.84154,4.30645 0,1.31743 0.62494,2.56703 1.66844,3.33616 0.80301,0.59189 1.28245,0.78763 4.39994,1.79639 1.81203,0.58633 2.99896,1.21424 3.80226,2.01148 1.15619,1.14745 1.60491,4.5451 0.93668,7.09228 -0.28956,1.10355 -0.58573,1.56908 -1.34132,2.10826 -1.11175,0.79332 -2.03527,1.11666 -4.85108,1.69846 -0.64374,0.133 -1.45402,0.324 -1.80063,0.42444 -2.80877,0.81396 -4.09377,3.10938 -3.2292,5.76838 0.12639,0.38872 0.62444,1.47302 1.17126,2.54997 1.03133,2.03118 1.16354,2.33119 1.42514,3.2339 0.2631,0.9079 0.33993,1.75443 0.21006,2.31443 -0.44895,1.93581 -3.13538,4.79903 -5.17957,5.52041 -1.3231,0.46692 -3.01124,-0.0481 -5.46879,-1.66831 -2.21874,-1.46279 -3.0116,-1.87442 -4.02362,-2.08893 -0.60692,-0.12863 -0.88563,-0.127 -1.55251,0.009 -1.36858,0.2793 -2.3786,1.09322 -3.06966,2.47368 -0.22091,0.44129 -0.54795,1.27959 -0.7581,1.94323 -0.63163,1.99461 -0.85912,2.62838 -1.21151,3.37503 -0.96987,2.05506 -1.83355,2.73685 -3.92524,3.09864 -0.80119,0.13857 -2.44134,0.18978 -3.18373,0.0994 z M 215.9,139.7 c 3.42315,-0.44873 6.416,-1.87664 8.96523,-4.27739 1.85596,-1.74785 3.47292,-4.45343 4.20709,-7.03956 0.5422,-1.90987 0.72072,-4.2333 0.47589,-6.19327 -0.65453,-5.23967 -3.80736,-9.73349 -8.49554,-12.10893 -2.28853,-1.15957 -4.50412,-1.68453 -7.10955,-1.68453 -1.43068,0 -2.60601,0.1405 -3.86598,0.46214 -5.87022,1.49855 -10.35129,6.20525 -11.54972,12.13126 -0.23491,1.16161 -0.31172,2.17576 -0.272,3.59137 0.0546,1.94448 0.35379,3.4773 1.0053,5.14986 0.83181,2.13543 1.95989,3.86458 3.57473,5.47942 2.61326,2.61326 5.67819,4.06836 9.58656,4.55129 0.60479,0.0747 2.72419,0.0372 3.47799,-0.0617 z"
       id="path899" />
    <text
       xml:space="preserve"
       id="text901"
       style="font-style:normal;font-weight:normal;font-size:10.5833px;line-height:1.25;font-family:sans-serif;white-space:pre;shape-inside:url(#rect903);fill:#000000;fill-opacity:1;stroke:none;"
       transform="translate(153.54218,-1.7008929)"><tspan
         x="25.400391"
         y="174.75507"><tspan>Configuração</tspan></tspan></text>
    <path
       style="fill:#ffffff;stroke:none;stroke-width:0.132291px;stroke-linecap:butt;stroke-linejoin:miter;stroke-opacity:1"
       d="M 12.7,6.3499999 V 12.7 H 50.8 V 6.3499999 Z"
       id="path907" />
    <path
       style="fill:#ffffff;stroke:none;stroke-width:0.132291px;stroke-linecap:butt;stroke-linejoin:miter;stroke-opacity:1"
       d="M 12.7,19.05 V 25.4 H 50.8 V 19.05 Z"
       id="path907-0" />
    <path
       style="fill:#ffffff;stroke:none;stroke-width:0.132291px;stroke-linecap:butt;stroke-linejoin:miter;stroke-opacity:1"
       d="M 12.7,31.75 V 38.1 H 50.8 V 31.75 Z"
       id="path907-0-3" />
    <path
       style="fill:#000000;stroke-width:0.135377"
       d="m 64.466362,161.322 c -0.74526,-0.20044 -1.946327,-0.98395 -2.354386,-1.53588 -0.153938,-0.20822 -0.425012,-0.65085 -0.602388,-0.98362 l -0.322495,-0.60504 -0.0369,-11.28345 c -0.02927,-8.95225 -0.07179,-11.27005 -0.205897,-11.21858 -0.09297,0.0356 -4.249807,2.76781 -9.237425,6.07143 -6.519226,4.3181 -9.249422,6.05415 -9.712398,6.1758 -2.664795,0.70021 -5.294322,-0.97572 -5.796952,-3.69469 -0.251829,-1.36227 0.232105,-2.94259 1.209505,-3.94974 0.2769,-0.28533 4.882373,-3.43049 10.234379,-6.98926 l 9.730926,-6.47049 -9.261226,-6.13293 c -5.093674,-3.37311 -9.579414,-6.36223 -9.968311,-6.6425 -1.362235,-0.98171 -2.197695,-2.7822 -1.999483,-4.30905 0.377047,-2.90445 3.196958,-4.77909 5.938006,-3.94751 0.636322,0.19305 3.794675,2.23262 14.412647,9.30723 2.332978,1.55444 4.327057,2.85897 4.431288,2.89897 0.161321,0.0619 0.194897,-1.596 0.225667,-11.14331 l 0.03612,-11.216036 0.358929,-0.765608 c 0.89908,-1.917748 3.074436,-3.00329 5.133482,-2.561702 0.515175,0.110485 3.431901,1.60106 9.871023,5.044519 10.366562,5.543747 10.420389,5.574187 11.376851,6.434127 2.90371,2.61068 3.842009,6.72053 2.364487,10.35673 -0.442433,1.08883 -1.437808,2.5475 -2.214902,3.24582 -0.357007,0.32081 -3.613905,2.55716 -7.237553,4.96966 -3.623647,2.4125 -6.58845,4.42973 -6.58845,4.48272 0,0.053 2.956949,2.06217 6.570997,4.46483 3.614049,2.40267 6.870948,4.63816 7.237553,4.96777 1.888053,1.69753 3.142517,4.8515 2.919516,7.34025 -0.122815,1.37066 -0.299081,2.05799 -0.823391,3.21078 -0.842848,1.85315 -2.093675,3.20227 -3.99151,4.30513 -2.906688,1.68913 -18.709236,10.03763 -19.286865,10.18928 -0.826741,0.21702 -1.563563,0.21224 -2.410899,-0.0156 z M 75.69148,146.23811 c 2.893349,-1.55179 5.442054,-2.91623 5.663787,-3.0321 l 0.403147,-0.21067 -5.645433,-3.73676 c -3.104982,-2.0552 -5.677494,-3.73675 -5.716688,-3.73675 -0.03919,0 -0.07126,3.04599 -0.07126,6.76884 0,3.72287 0.02379,6.76885 0.05291,6.76885 0.02911,0 2.420191,-1.26963 5.31354,-2.82141 z M 76.2,114.3 c 5.404794,-3.57083 5.526896,-3.66122 5.210987,-3.85727 -0.525369,-0.32607 -10.905151,-5.78682 -10.999558,-5.78682 -0.04753,0 -0.0864,3.02203 -0.0864,6.71564 0,5.33842 0.03489,6.70223 0.170245,6.6503 0.09363,-0.0359 2.660764,-1.71076 5.704726,-3.72185 z"
       id="path976" />
    <text
       xml:space="preserve"
       id="text901-1"
       style="font-style:normal;font-weight:normal;font-size:10.5833px;line-height:1.25;font-family:sans-serif;white-space:pre;shape-inside:url(#rect903-9);fill:#000000;fill-opacity:1;stroke:none;"
       transform="translate(17.98016,0.5755954)"><tspan
         x="25.400391"
         y="174.75507"><tspan>Conexão</tspan></tspan></text>
    <path
       style="fill:#000000;stroke-width:0.125809"
       d="m 34.76657,286.87428 c -0.429412,-0.17861 -0.5818,-0.46978 -0.652199,-1.24619 l -0.06746,-0.74353 -0.756463,-0.0686 c -0.918411,-0.0833 -1.274769,-0.372 -1.274769,-1.03283 0,-0.67558 0.376612,-0.97761 1.302496,-1.04459 l 0.758703,-0.0549 0.03246,-29.73534 0.03246,-29.73534 0.280278,-0.28026 c 0.377128,-0.37713 1.075271,-0.37712 1.452399,0 l 0.28027,0.28027 0.03221,29.7496 0.03221,29.74961 29.749604,0.0322 29.749604,0.0322 0.28027,0.28027 c 0.377128,0.37713 0.377128,1.07527 0,1.4524 l -0.280262,0.28027 -29.735343,0.0325 -29.735335,0.0325 -0.05486,0.7587 c -0.03838,0.53071 -0.127975,0.83048 -0.298115,0.99751 -0.297675,0.29224 -0.785322,0.40612 -1.128273,0.26348 z m 34.257219,-10.8388 c -0.849186,-0.20024 -2.17137,-0.96128 -2.877662,-1.65638 -1.284922,-1.26456 -1.933241,-2.78579 -1.920147,-4.50546 0.01226,-1.61379 0.442396,-2.8319 1.493161,-4.22893 0.09398,-0.12494 -0.4808,-0.77245 -2.318797,-2.61227 l -2.443745,-2.44615 -0.449007,0.35321 c -1.081627,0.85087 -2.371773,1.26737 -3.925866,1.26737 -1.44217,0 -2.602025,-0.40672 -4.040315,-1.41676 -0.193421,-0.13583 -0.452118,0.0772 -2.123965,1.74905 l -1.903721,1.90372 0.45254,0.59268 c 1.123632,1.47157 1.496601,3.8606 0.883583,5.65969 -0.777714,2.28248 -2.818456,3.99227 -5.202884,4.35913 -3.719419,0.57225 -7.305867,-2.54617 -7.295072,-6.34308 0.0085,-2.92511 2.248253,-5.66168 5.123279,-6.25919 1.066099,-0.22156 2.581889,-0.0922 3.56102,0.30396 l 0.812432,0.32868 2.05152,-2.0506 2.051519,-2.0506 -0.309721,-0.93598 c -0.439987,-1.32966 -0.516236,-2.25447 -0.279416,-3.38893 0.427011,-2.0455 1.697233,-3.67002 3.574259,-4.5712 0.967533,-0.46453 1.150438,-0.5083 2.346752,-0.5615 1.075203,-0.0478 1.447563,-0.0121 2.173915,0.20852 2.097877,0.63721 3.821805,2.42983 4.37221,4.54643 0.298858,1.14925 0.205069,2.81451 -0.217251,3.85743 l -0.313863,0.77511 2.61353,2.61131 2.61353,2.61131 0.732717,-0.28802 c 0.5254,-0.20652 1.094147,-0.30598 2.01009,-0.3515 1.588565,-0.079 2.659111,0.20601 3.858214,1.02694 l 0.80474,0.55096 4.671305,-4.67337 4.671297,-4.67337 -0.330652,-0.81743 c -0.907278,-2.24296 -0.320584,-4.9875 1.443235,-6.75131 2.557747,-2.55775 6.401853,-2.56922 8.983945,-0.0268 2.562438,2.52305 2.589743,6.44701 0.06247,8.97431 -2.209267,2.20927 -5.470017,2.54394 -8.043369,0.82552 l -0.75844,-0.50647 -1.463448,1.3759 c -0.8049,0.75675 -2.926911,2.84351 -4.715583,4.63725 L 76.2,266.7 l 0.201265,0.3892 c 0.296221,0.57284 0.57469,1.8722 0.576821,2.6915 0.0068,2.76734 -1.867195,5.32063 -4.509078,6.14232 -0.855873,0.26621 -2.557611,0.32176 -3.445193,0.11248 z"
       id="path1021" />
    <text
       xml:space="preserve"
       id="text901-1-6"
       style="font-style:normal;font-weight:normal;font-size:10.5833px;line-height:1.25;font-family:sans-serif;white-space:pre;shape-inside:url(#rect903-9-5);fill:#000000;fill-opacity:1;stroke:none;"
       transform="translate(13.196843,126.11204)"><tspan
         x="25.400391"
         y="174.75507"><tspan>Relatório</tspan></tspan></text>
    <path
       style="fill:#000000;stroke-width:0.841856"
       d="m 183.16706,270.05872 c -8.34529,-2.24396 -12.34154,-8.67054 -12.34154,-19.84707 0,-11.56781 4.414,-18.19173 13.40779,-20.12055 5.63904,-1.20936 41.55476,-1.20936 47.1938,0 8.99379,1.92882 13.40779,8.55274 13.40779,20.12055 0,11.56781 -4.414,18.19173 -13.40779,20.12055 -6.1793,1.32522 -43.09242,1.11604 -48.26005,-0.27348 z m 12.03531,-11.80331 v -3.74223 l 3.99881,-0.25659 L 203.2,254 l 0.25887,-3.57789 0.25887,-3.57789 h -4.25769 -4.25768 v -4.20928 -4.20928 h -3.78836 -3.78835 v 4.20928 4.20928 h -4.25768 -4.25769 l 0.25887,3.57789 0.25887,3.57789 3.99882,0.25659 3.99881,0.25659 v 3.74223 3.74222 h 3.78835 3.78836 z m 41.18984,1.52405 c 2.41785,-3.0738 2.18881,-5.88591 -0.71599,-8.79071 -2.77439,-2.77439 -4.15901,-2.99888 -7.58126,-1.22917 -3.88959,2.01139 -4.60968,6.29898 -1.68282,10.01988 1.34584,1.71096 2.48688,2.21817 4.99004,2.21817 2.50315,0 3.6442,-0.50721 4.99003,-2.21817 z m -12.9494,-11.63419 c 4.17577,-4.17576 1.21684,-11.40332 -4.66847,-11.40332 -3.46096,0 -6.73485,3.2739 -6.73485,6.73485 0,1.64025 0.76382,3.36592 2.06637,4.66847 1.30255,1.30256 3.02823,2.06638 4.66848,2.06638 1.64025,0 3.36592,-0.76382 4.66847,-2.06638 z"
       id="path1067" />
    <text
       xml:space="preserve"
       id="text901-1-6-9"
       style="font-style:normal;font-weight:normal;font-size:10.5833px;line-height:1.25;font-family:sans-serif;white-space:pre;shape-inside:url(#rect903-9-5-6);fill:#000000;fill-opacity:1;stroke:none;"
       transform="translate(164.05194,123.51456)"><tspan
         x="25.400391"
         y="174.75507"><tspan>Controle</tspan></tspan></text>
  </g>
</svg>
